<svg width="512" height="512" viewBox="0 0 512 512" fill="none" xmlns="http://www.w3.org/2000/svg">
<path d="M169.928 141.5C167.792 141.503 165.684 141.986 163.76 142.914C161.836 143.841 160.145 145.189 158.812 146.858L71.885 255.5H198.998C202.778 255.5 206.403 257.001 209.075 259.674C211.747 262.346 213.249 265.971 213.249 269.75C213.249 281.088 217.753 291.962 225.77 299.979C233.788 307.996 244.662 312.5 256 312.5C267.338 312.5 278.212 307.996 286.23 299.979C294.247 291.962 298.751 281.088 298.751 269.75C298.751 265.971 300.253 262.346 302.925 259.674C305.597 257.001 309.222 255.5 313.002 255.5H440.115L353.188 146.858C351.855 145.189 350.164 143.841 348.24 142.914C346.316 141.986 344.208 141.503 342.072 141.5H169.928ZM136.582 129.045C140.583 124.044 145.657 120.005 151.429 117.228C157.2 114.451 163.522 113.006 169.928 113H342.072C348.478 113.006 354.8 114.451 360.571 117.228C366.343 120.005 371.417 124.044 375.418 129.045L480.871 260.858C482.061 262.343 482.941 264.051 483.46 265.882C483.979 267.713 484.126 269.629 483.892 271.517L472.777 360.551C471.484 370.893 466.458 380.407 458.643 387.304C450.828 394.2 440.762 398.004 430.339 398H81.6608C71.2377 398.004 61.1722 394.2 53.3571 387.304C45.5419 380.407 40.5156 370.893 39.2231 360.551L28.1078 271.517C27.8742 269.629 28.0212 267.713 28.54 265.882C29.0589 264.051 29.9392 262.343 31.1289 260.858L136.582 129.045Z" fill="#00B5D8"/>
</svg>
