<svg width="512" height="512" viewBox="0 0 512 512" fill="none" xmlns="http://www.w3.org/2000/svg">
<rect width="512" height="512" rx="64" fill="url(#paint0_linear)"/>
<g filter="url(#filter0_d)">
<path d="M397.76 149.459L362.541 114.24C351.555 103.253 333.737 103.253 322.751 114.24L289.617 147.373L364.627 222.383L397.76 189.249C408.746 178.263 408.746 160.451 397.76 149.459V149.459ZM253.155 137.43C244.003 128.278 229.167 128.278 220.015 137.43L150.419 207.032C146.757 210.694 146.757 216.629 150.419 220.286L163.679 233.545C167.341 237.207 173.276 237.207 176.938 233.545L236.597 173.886L249.856 187.14L161.054 275.937C130.295 306.696 110.917 347.005 106.106 390.238L106.088 390.373C105.092 399.326 112.657 406.896 121.609 405.906C164.898 401.126 205.267 381.741 236.064 350.946L351.367 235.643L302.87 187.146L253.155 137.43V137.43Z" fill="#C4F1F9"/>
<path d="M397.76 149.459L362.541 114.24C351.555 103.253 333.737 103.253 322.751 114.24L289.617 147.373L364.627 222.383L397.76 189.249C408.746 178.263 408.746 160.451 397.76 149.459V149.459ZM253.155 137.43C244.003 128.278 229.167 128.278 220.015 137.43L150.419 207.032C146.757 210.694 146.757 216.629 150.419 220.286L163.679 233.545C167.341 237.207 173.276 237.207 176.938 233.545L236.597 173.886L249.856 187.14L161.054 275.937C130.295 306.696 110.917 347.005 106.106 390.238L106.088 390.373C105.092 399.326 112.657 406.896 121.609 405.906C164.898 401.126 205.267 381.741 236.064 350.946L351.367 235.643L302.87 187.146L253.155 137.43V137.43Z" stroke="black"/>
</g>
<defs>
<filter id="filter0_d" x="75.8002" y="75.8002" width="375.499" height="375.493" filterUnits="userSpaceOnUse" color-interpolation-filters="sRGB">
<feFlood flood-opacity="0" result="BackgroundImageFix"/>
<feColorMatrix in="SourceAlpha" type="matrix" values="0 0 0 0 0 0 0 0 0 0 0 0 0 0 0 0 0 0 127 0" result="hardAlpha"/>
<feOffset dx="7.54994" dy="7.54994"/>
<feGaussianBlur stdDeviation="18.8749"/>
<feComposite in2="hardAlpha" operator="out"/>
<feColorMatrix type="matrix" values="0 0 0 0 0 0 0 0 0 0 0 0 0 0 0 0 0 0 0.25 0"/>
<feBlend mode="normal" in2="BackgroundImageFix" result="effect1_dropShadow"/>
<feBlend mode="normal" in="SourceGraphic" in2="effect1_dropShadow" result="shape"/>
</filter>
<linearGradient id="paint0_linear" x1="256" y1="0" x2="256" y2="512" gradientUnits="userSpaceOnUse">
<stop stop-color="#00B5D8"/>
<stop offset="1" stop-color="#0987A0"/>
</linearGradient>
</defs>
</svg>
