<svg width="512" height="512" viewBox="0 0 512 512" fill="none" xmlns="http://www.w3.org/2000/svg">
<rect width="512" height="512" rx="128" fill="#00A3C4"/>
<path d="M180.498 156.055C178.624 156.058 176.775 156.482 175.088 157.298C173.4 158.113 171.917 159.298 170.748 160.765L94.4956 256.275H205.999C209.314 256.275 212.493 257.595 214.838 259.944C217.182 262.293 218.499 265.48 218.499 268.802C218.499 278.77 222.45 288.329 229.483 295.377C236.516 302.425 246.054 306.385 256 306.385C265.946 306.385 275.484 302.425 282.517 295.377C289.55 288.329 293.501 278.77 293.501 268.802C293.501 265.48 294.818 262.293 297.162 259.944C299.507 257.595 302.686 256.275 306.001 256.275H417.504L341.252 160.765C340.083 159.298 338.6 158.113 336.912 157.298C335.225 156.482 333.376 156.058 331.502 156.055H180.498ZM151.247 145.106C154.757 140.709 159.208 137.158 164.271 134.717C169.334 132.275 174.879 131.005 180.498 131H331.502C337.121 131.005 342.666 132.275 347.729 134.717C352.792 137.158 357.243 140.709 360.753 145.106L453.255 260.985C454.299 262.291 455.071 263.792 455.526 265.402C455.981 267.011 456.11 268.695 455.905 270.356L446.155 348.627C445.021 357.719 440.612 366.083 433.757 372.146C426.902 378.209 418.072 381.553 408.929 381.549H103.071C93.9278 381.553 85.0984 378.209 78.2431 372.146C71.3877 366.083 66.9786 357.719 65.8448 348.627L56.0946 270.356C55.8896 268.695 56.0186 267.011 56.4737 265.402C56.9289 263.792 57.701 262.291 58.7446 260.985L151.247 145.106Z" fill="#EDFDFD"/>
</svg>
