<svg width="512" height="512" viewBox="0 0 512 512" fill="none" xmlns="http://www.w3.org/2000/svg">
<path d="M445.014 113.946L398.054 66.986C383.406 52.338 359.649 52.338 345.001 66.986L300.822 111.165L400.835 211.178L445.014 166.999C459.662 152.351 459.662 128.602 445.014 113.946V113.946ZM252.206 97.9071C240.004 85.7043 220.223 85.7043 208.02 97.9071L115.226 190.709C110.343 195.592 110.343 203.506 115.226 208.381L132.905 226.06C137.788 230.943 145.701 230.943 150.584 226.06L230.129 146.515L247.808 164.187L129.405 282.582C88.3931 323.594 62.556 377.34 56.1413 434.984L56.1179 435.164C54.7898 447.101 64.8754 457.195 76.8126 455.874C134.531 449.501 188.356 423.655 229.418 382.595L383.156 228.857L318.494 164.194L252.206 97.9071V97.9071Z" fill="#00B5D8"/>
</svg>
