<svg width="512" height="512" viewBox="0 0 512 512" fill="none" xmlns="http://www.w3.org/2000/svg">
<rect width="512" height="512" rx="64" fill="#00A3C4"/>
<path d="M184.273 160.802C182.493 160.805 180.737 161.208 179.133 161.983C177.53 162.757 176.121 163.883 175.01 165.277L102.571 256.011H208.499C211.648 256.011 214.669 257.265 216.896 259.497C219.123 261.729 220.374 264.756 220.374 267.912C220.374 277.381 224.127 286.462 230.809 293.158C237.49 299.854 246.551 303.615 256 303.615C265.449 303.615 274.51 299.854 281.191 293.158C287.873 286.462 291.626 277.381 291.626 267.912C291.626 264.756 292.877 261.729 295.104 259.497C297.331 257.265 300.352 256.011 303.501 256.011H409.429L336.99 165.277C335.879 163.883 334.47 162.757 332.867 161.983C331.263 161.208 329.507 160.805 327.727 160.802H184.273ZM156.485 150.401C159.819 146.223 164.047 142.85 168.857 140.531C173.667 138.211 178.935 137.005 184.273 137H327.727C333.065 137.005 338.333 138.211 343.143 140.531C347.953 142.85 352.181 146.223 355.515 150.401L443.393 260.486C444.384 261.726 445.118 263.153 445.55 264.682C445.982 266.21 446.105 267.811 445.91 269.388L436.647 343.746C435.57 352.383 431.382 360.329 424.869 366.089C418.356 371.848 409.969 375.025 401.283 375.022H110.717C102.031 375.025 93.6435 371.848 87.1309 366.089C80.6183 360.329 76.4296 352.383 75.3526 343.746L66.0898 269.388C65.8952 267.811 66.0176 266.21 66.45 264.682C66.8824 263.153 67.616 261.726 68.6074 260.486L156.485 150.401V150.401Z" fill="#EDFDFD"/>
</svg>
